<?xml version="1.0" standalone="no"?>
<!DOCTYPE svg PUBLIC "-//W3C//DTD SVG 20010904//EN"
 "http://www.w3.org/TR/2001/REC-SVG-20010904/DTD/svg10.dtd">
<svg version="1.0" xmlns="http://www.w3.org/2000/svg"
 width="1200.000000pt" height="1200.000000pt" viewBox="0 0 1200.000000 1200.000000"
 preserveAspectRatio="xMidYMid meet">

<g transform="translate(0.000000,1200.000000) scale(0.100000,-0.100000)"
fill="#000000" stroke="none">
<path d="M0 6000 l0 -6000 6000 0 6000 0 0 6000 0 6000 -6000 0 -6000 0 0
-6000z m6365 5236 c28 -2 84 -7 125 -10 41 -4 86 -8 100 -10 14 -3 52 -7 85
-11 187 -20 473 -77 710 -141 1048 -286 2013 -916 2692 -1759 461 -572 790
-1211 982 -1910 42 -151 78 -305 96 -410 3 -16 8 -37 10 -45 2 -8 7 -35 10
-60 3 -25 8 -52 10 -60 2 -8 7 -39 10 -69 4 -30 8 -61 10 -70 1 -9 6 -45 10
-81 3 -36 8 -76 10 -90 27 -190 26 -745 -1 -1020 -6 -57 -34 -277 -39 -310
-40 -227 -46 -255 -84 -413 -193 -801 -579 -1558 -1113 -2179 -631 -733 -1438
-1273 -2359 -1578 -189 -63 -540 -152 -689 -175 -19 -3 -60 -10 -90 -15 -30
-5 -77 -12 -105 -15 -27 -4 -61 -8 -75 -10 -14 -2 -52 -7 -85 -11 -33 -3 -67
-8 -75 -9 -143 -27 -791 -27 -1020 0 -19 2 -60 7 -90 10 -67 7 -125 15 -165
21 -65 10 -82 13 -125 19 -25 3 -52 8 -60 10 -8 2 -30 7 -48 10 -19 3 -73 15
-120 26 -48 11 -94 22 -102 24 -184 40 -502 142 -730 233 -860 345 -1603 902
-2178 1631 -462 586 -798 1278 -973 2008 -38 158 -44 186 -84 413 -4 25 -31
236 -40 315 -27 242 -27 805 0 1020 2 17 7 51 10 78 13 119 17 145 25 197 5
30 12 71 15 90 21 133 73 367 111 505 201 714 515 1328 980 1911 161 202 383
436 584 615 416 372 887 674 1400 899 440 194 970 341 1413 394 26 3 66 8 90
11 80 11 122 14 257 21 74 3 137 8 138 10 6 4 510 -4 567 -10z"/>
<path d="M5424 7035 c-30 -93 -91 -279 -135 -413 -44 -133 -88 -269 -98 -302
l-19 -60 87 0 86 0 30 103 30 102 144 3 c80 1 148 -1 153 -6 4 -4 21 -50 36
-102 l28 -95 88 -3 c69 -2 87 0 84 10 -3 7 -69 209 -147 448 -78 239 -146 446
-152 460 -9 24 -14 25 -85 25 l-75 0 -55 -170z m196 -279 c22 -72 37 -132 34
-135 -3 -4 -50 -6 -105 -7 -86 0 -99 2 -95 15 3 9 23 77 45 151 22 74 43 153
47 175 l7 40 14 -55 c8 -30 32 -113 53 -184z"/>
<path d="M6135 7201 c-3 -2 -5 -215 -5 -472 l0 -469 70 0 70 0 1 288 c0 222 3
280 12 257 6 -16 43 -144 82 -283 39 -139 75 -254 80 -255 5 -1 43 120 85 268
42 149 79 277 82 285 4 8 7 -114 7 -272 l1 -288 70 0 70 0 -2 472 -3 473 -68
0 c-52 1 -71 -3 -77 -15 -4 -8 -38 -127 -74 -265 -37 -137 -72 -266 -78 -285
-10 -32 -15 -18 -83 240 -39 151 -74 286 -78 300 -6 24 -9 25 -82 25 -42 0
-78 -2 -80 -4z"/>
<path d="M5144 5572 c-36 -28 -44 -57 -44 -146 l0 -86 900 0 900 0 0 86 c0 89
-8 118 -44 146 -19 16 -80 18 -856 18 -776 0 -837 -2 -856 -18z"/>
<path d="M5100 4652 c0 -467 3 -621 12 -630 17 -17 1759 -17 1776 0 9 9 12
163 12 630 l0 618 -900 0 -900 0 0 -618z m677 206 c68 -68 123 -126 123 -130
0 -5 -54 -61 -121 -126 -122 -118 -151 -135 -173 -100 -9 15 5 34 94 123 l105
105 -98 98 c-108 108 -123 146 -62 151 5 1 65 -54 132 -121z m641 -320 c15
-15 15 -45 0 -54 -7 -4 -120 -8 -251 -8 -182 -1 -244 2 -258 12 -23 16 -24 26
-3 46 13 14 51 16 258 16 175 0 245 -3 254 -12z"/>
</g>
</svg>
